<?xml version="1.0" encoding="utf-8"?>
<!-- Generator: Adobe Illustrator 21.0.0, SVG Export Plug-In . SVG Version: 6.00 Build 0)  -->
<svg version="1.1" id="Layer_1" xmlns="http://www.w3.org/2000/svg" xmlns:xlink="http://www.w3.org/1999/xlink" x="0px" y="0px"
	 viewBox="0 0 256 256" style="enable-background:new 0 0 256 256;" xml:space="preserve">
<path d="M63.7,132.8c0.2,0.2,0.4,0.3,0.5,0.5C74.6,144,85,154.7,95.4,165.4c0.5,0.6,1,1.2,1.4,1.9c2.3,4,4.2,8.1,5.3,12.6
	c0.7,2.8,1,5.6,1.2,8.5c0.4,6,0.2,12-0.7,17.9c-0.6,3.8-1.7,7.4-2.9,11c-0.6,1.7-1.3,3.3-1.9,5c-0.1,0.2-0.1,0.3-0.1,0.5
	c-0.1,0.1-0.2,0.2-0.3,0.2c-0.2,0.1-0.5,0.1-0.7,0.2c-5.7,2.2-11.5,3.8-17.6,4.5c-5.8,0.6-11.7,0.5-17.5-0.2c-3.2-0.4-6.3-0.9-9.3-2
	c-3.8-1.3-7.3-3.1-10.7-5.3c-0.2-0.1-0.3-0.1-0.5-0.2c-10.9-11.2-21.8-22.5-32.6-33.7C26.9,168.5,45.3,150.6,63.7,132.8z
	 M43.9,153.9c-1.1,0.9-14.2,13.6-14.4,14.1c6.3,6.5,12.7,13.1,19,19.7c-6.3,6.1-12.6,12.2-19,18.4c0.2,0.2,0.4,0.4,0.5,0.5
	c3.7,3.8,7.4,7.6,11.1,11.5c0.9,0.9,2,1.5,3.1,2.2c1.2-1.2,2.5-2.4,3.7-3.6c1.2-1.2,2.5-2.4,3.7-3.6c1.2-1.2,2.4-2.4,3.7-3.6
	c1.2-1.2,2.5-2.4,3.7-3.6c1.2-1.2,2.4-2.4,3.7-3.5c0.2,0.2,0.4,0.4,0.6,0.6c7,7.2,14,14.4,21,21.7c0.1,0.1,0.3,0.2,0.4,0.4
	c0.2,0.2,0.4,0.3,0.7,0.2c3.6-0.9,7.2-1.9,10.7-3.3c0.3-0.1,0.5-0.3,0.6-0.6c1.3-3,2.3-6.1,3.2-9.3c0-0.1,0-0.2,0.1-0.3
	c-7.6-7.8-15.1-15.6-22.8-23.5c6.5-6.3,12.9-12.5,19.3-18.7c-0.4-0.6-0.7-1.2-1-1.8c-0.2-0.3-0.4-0.7-0.6-0.9
	c-3.9-4-7.8-8.1-11.7-12.1c-0.1-0.1-0.2-0.2-0.4-0.3c-6.6,6.4-13.2,12.8-19.8,19.2C56.6,167,50.3,160.5,43.9,153.9z M63,171.8
	c6.3-6.1,12.6-12.2,18.9-18.3c-6.1-6.3-12.1-12.5-18.2-18.8c-6.3,6.1-12.6,12.2-18.9,18.3C50.9,159.3,56.9,165.5,63,171.8z
	 M28.5,168.8c-6,5.8-12,11.7-18,17.5c6.1,6.3,12.1,12.5,18.2,18.7c0.6-0.4,17.8-17.1,18-17.5C40.6,181.3,34.6,175.1,28.5,168.8z
	 M100.4,210.3c0.2-1.2,0.5-2.2,0.7-3.3c1-5.6,1.3-11.2,1-16.9c-0.1-3-0.4-5.9-1-8.8c-0.7-3.6-2.1-7-3.8-10.3
	c-0.1-0.1-0.1-0.2-0.2-0.3c-6,5.8-12.1,11.7-18.1,17.5C86.1,195.6,93.2,202.9,100.4,210.3z M45.5,220.9c0.1,0.1,0.2,0.2,0.4,0.2
	c0.6,0.3,1.2,0.6,1.8,0.9c3.9,2,8,3.3,12.4,3.9c4.1,0.5,8.1,0.8,12.2,0.8c3.6,0,7.1-0.3,10.6-0.9c0.2,0,0.4-0.1,0.7-0.1
	c-7-7.2-13.8-14.3-20.8-21.4C57,209.7,51.3,215.3,45.5,220.9z"/>
<path d="M233.3,34.2c0.2,2,0.3,4,0.1,6c-0.1,1.2-0.3,2.3-0.7,3.4c-0.3,0.8-0.8,1.6-1.5,2.2c-1.1,1-2.5,1-3.6,0
	c-0.6-0.6-1.1-1.2-1.4-1.9c-0.8-1.6-1.5-3.2-2.3-4.8c-1-2.2-1.9-4.4-2.9-6.6c-0.3-0.6-0.6-1.2-1-1.8c-0.2-0.3-0.5-0.6-0.8-0.9
	c-0.5-0.5-1.3-0.4-1.8,0c-0.5,0.4-0.8,0.8-1,1.4c-0.2,0.7-0.3,1.4-0.3,2.1c-0.1,1.9,0.3,3.7,0.7,5.5c0.6,2.4,1.6,4.7,2.6,7
	c0.8,1.8,1.5,3.6,2.3,5.5c0.2,0.5,0.3,1,0.5,1.4c0.1,0.5,0,0.9-0.3,1.3c-0.6,0.7-1.2,1.2-1.9,1.7c-0.1,0.1-0.3,0.2-0.5,0.2
	c-0.6,0.2-1,0-1.2-0.5c-0.2-0.3-0.3-0.7-0.4-1c-1.4-3.5-2.8-7-4.4-10.4c-0.5-1-1-1.9-1.6-2.9c-0.2-0.3-0.6-0.7-0.9-0.9
	c-0.9-0.5-1.9,0-2,1c0,0.6,0,1.1,0.1,1.7c0,0.3,0.1,0.6,0.2,1c-0.5,0.1-0.9,0.2-1.3,0.3c-0.7-2.3-1.3-4.6-0.9-7
	c0.2-1.1,0.5-2.1,1.4-2.9c0.9-0.8,2-0.9,3.1-0.2c0.7,0.5,1.2,1.1,1.7,1.8c0.6,0.8,1.1,1.6,1.6,2.5c0.1,0.1,0.1,0.2,0.3,0.2
	c0-0.2,0-0.4,0-0.5c-0.2-2.2-0.4-4.5-0.1-6.7c0.2-1.6,0.6-3.2,1.5-4.6c0.6-0.9,1.3-1.6,2.2-2.1c1.4-0.7,2.7-0.5,3.9,0.5
	c0.6,0.6,1.1,1.3,1.5,2c0.6,1.3,1.2,2.7,1.8,4.1c1,2.3,2,4.5,3,6.8c0.2,0.4,0.4,0.8,0.6,1.1c0.3,0.4,0.6,0.6,1.1,0.6
	c0.5-0.1,0.8-0.4,0.9-0.9c0.1-0.4,0.2-0.8,0.2-1.3c0-0.9,0-1.8,0.1-2.8c0-0.2,0-0.4,0-0.7C232.3,34.1,232.7,34.1,233.3,34.2
	C233.2,34.1,233.3,34.2,233.3,34.2z"/>
<path d="M125,136.3c0.6-0.2,1.1-0.4,1.7-0.7c0.9,2.5,1.6,5,2.8,7.5c-0.2,0.2-0.4,0.5-0.7,0.8c-2,2.2-4.1,4.2-6.3,6.2
	c-3.4,3-6.6,6.2-9.7,9.5c-1.1,1.1-2.2,2.2-3.3,3.2c-0.1,0.1-0.3,0.2-0.4,0.4c-0.3-0.5-0.5-0.9-0.8-1.3c0.1-0.1,0.2-0.2,0.2-0.3
	c0.8-1,1.2-2.1,1.1-3.3c-0.1-1.2-0.5-2.4-1.1-3.4c-1.7-3.1-3.3-6.2-5-9.3c-2.3-4.2-4.5-8.4-6.8-12.5c-0.1-0.2-0.2-0.4-0.3-0.6
	c-0.5-0.8-1.2-1.2-2.2-1c-0.9,0.2-1.6,0.6-2.3,1.1c-0.3,0.2-0.6,0.4-1,0.7c-0.3-0.6-0.5-1.1-0.8-1.6c0.4-0.4,0.7-0.7,1.1-1.1
	c1.1-1,2.3-1.9,3.3-3c1.4-1.3,2.7-2.7,4-4c0.9-0.9,1.8-1.8,2.8-2.8c0.3,0.5,0.6,1,0.9,1.4c-0.4,0.5-0.8,1-1.1,1.5
	c-0.7,1-0.9,2.2-0.5,3.3c0.3,0.9,0.7,1.8,1.1,2.6c3.7,6.8,7.3,13.6,11,20.4c0.4,0.7,0.9,1.3,1.3,1.9c0.1,0.2,0.3,0.3,0.5,0.5
	c0.7,0.5,1.4,0.6,2.2,0.2c0.5-0.3,1-0.7,1.5-1.1c1.3-1.3,2.7-2.6,4-3.9c0.9-0.9,1.7-1.8,2.4-2.9c0.5-0.8,0.8-1.6,0.8-2.5
	c0.1-1.5,0-3-0.2-4.5C125.1,137.1,125.1,136.8,125,136.3z"/>
<path d="M138.4,112.6c-0.4,0.1-0.8,0.2-1.3,0.3c-0.1-0.2-0.1-0.3-0.2-0.4c-0.5-1.6-0.8-3.1-0.9-4.8c0-0.9,0-1.8,0.3-2.7
	c0.2-0.7,0.6-1.4,1.2-1.9c0.9-0.8,2-0.9,3-0.3c0.7,0.5,1.2,1.1,1.7,1.8c0.6,0.8,1.1,1.6,1.6,2.5c0.1,0.1,0.1,0.2,0.3,0.4
	c0-0.3,0-0.5-0.1-0.7c-0.2-2.2-0.4-4.5-0.1-6.7c0.2-1.6,0.6-3.2,1.5-4.6c0.6-0.9,1.3-1.6,2.3-2.1c1.3-0.7,2.7-0.5,3.8,0.5
	c0.6,0.6,1.2,1.3,1.5,2.1c0.8,1.7,1.5,3.5,2.3,5.2c0.9,2,1.8,4,2.7,5.9c0.1,0.3,0.3,0.6,0.5,0.9c0.6,0.8,1.6,0.7,1.9-0.2
	c0.2-0.4,0.3-0.9,0.3-1.3c0.1-1,0.1-1.9,0.1-2.9c0-0.2,0-0.4,0-0.7c0.5,0,1,0,1.5,0c0,0.3,0.1,0.6,0.1,0.8c0.2,2.1,0.2,4.1,0,6.2
	c-0.2,1.2-0.4,2.3-1,3.4c-0.3,0.5-0.6,1-1.1,1.4c-1.1,1-2.4,1-3.5,0c-0.6-0.6-1.1-1.2-1.5-2c-0.8-1.7-1.6-3.4-2.4-5.1
	c-1-2.2-1.9-4.4-2.9-6.5c-0.2-0.5-0.5-1-0.8-1.6c-0.1-0.1-0.2-0.3-0.3-0.4c-0.9-1.2-2.2-1.1-3,0.2c-0.3,0.5-0.4,1-0.6,1.6
	c-0.2,1.1-0.1,2.2,0,3.3c0.3,2.7,1.1,5.3,2.1,7.8c1.1,2.7,2.3,5.4,3.4,8.1c0.2,0.5,0.4,1,0.5,1.5c0.2,0.5,0,1-0.3,1.4
	c-0.6,0.7-1.2,1.2-1.9,1.7c-0.2,0.1-0.4,0.2-0.6,0.2c-0.5,0.1-0.8,0-1-0.5c-0.2-0.3-0.3-0.7-0.5-1.1c-1.4-3.3-2.7-6.6-4.1-9.9
	c-0.5-1.2-1.1-2.4-1.9-3.5c-0.2-0.3-0.6-0.6-0.9-0.8c-0.9-0.6-1.9-0.1-2,1c0,0.4,0,0.9,0,1.3C138.2,111.7,138.3,112.1,138.4,112.6z"
	/>
<path d="M181.6,81.2c-1.5-1.6-2.6-3.4-3.3-5.5c-0.9-2.7-1.3-5.4-0.8-8.2c0.5-3,1.9-5.5,4.3-7.3c2.9-2.2,6.3-1.9,8.7-0.5
	c2,1.2,3.6,2.8,4.7,4.8c1.9,3.3,2.7,6.9,2.2,10.7c-0.3,2.4-1.3,4.6-3,6.4c-3,3.2-7.6,3.6-11.2,0.9C182.7,82.1,182.2,81.7,181.6,81.2
	z M187.7,63.7c-0.8-0.9-1.6-1.5-2.3-1.8c-1.5-0.6-3-0.2-3.9,1.2c-0.5,0.7-0.7,1.6-0.6,2.5c0.1,0.9,0.2,1.8,0.5,2.7
	c0.7,2.4,1.6,4.7,2.9,6.9c1,1.8,2.2,3.4,3.6,4.9c0.5,0.5,1.1,0.9,1.8,1.2c1,0.4,1.9,0.3,2.8-0.3c1.1-0.8,1.6-1.8,1.6-3.1
	c0.1-0.9-0.1-1.8-0.3-2.7C192.5,70.9,190.6,67,187.7,63.7z"/>
<path d="M190.8,28.8c0.7,1.4,1.3,2.8,2,4.2c2.7,5.2,5.4,10.4,8.2,15.5c1.9,3.5,3.7,7.1,5.6,10.6c0.4,0.7,0.8,1.4,1.3,1.9
	c0.6,0.7,1.3,0.6,1.7-0.2c0.2-0.5,0.4-1,0.4-1.5c0.1-1.2,0.1-2.3,0.1-3.5c0-0.2,0-0.4,0-0.7c0.5,0,0.9,0,1.3-0.1
	c0.1,0.1,0.1,0.1,0.1,0.1c0.3,2.5,0.4,5-0.1,7.5c-0.2,1-0.4,2-0.9,2.8c-0.4,0.8-1,1.4-1.8,1.9c-1,0.5-2.1,0.4-2.9-0.4
	c-0.6-0.5-1-1.2-1.4-1.9c-1.6-2.9-3.1-5.8-4.6-8.6c-3.1-5.9-6.3-11.8-9.4-17.7c-0.2-0.4-0.5-0.8-0.8-1.2c-0.6-0.8-1.2-1-2.2-0.7
	c-0.7,0.3-1.3,0.7-1.9,1.2c-0.2,0.2-0.4,0.3-0.7,0.5c-0.3-0.4-0.5-0.8-0.8-1.3c0.1-0.2,0.3-0.4,0.4-0.5c2-2.2,3.7-4.7,5.2-7.3
	C190,29.1,190.3,28.8,190.8,28.8z"/>
<path d="M177.8,88.4c0.5,0,0.9,0,1.3,0c0,0.1,0.1,0.1,0.1,0.2c0.2,1.9,0.2,3.8-0.2,5.7c-0.6,2.5-1.9,4.5-4,5.9
	c-2.4,1.7-4.9,1.6-7.4,0.3c-1.5-0.8-2.8-2-3.8-3.3c-3.4-4.5-4.2-9.5-2.7-14.9c0.7-2.5,2.2-4.6,4.3-6.2c1-0.8,2.2-1.4,3.5-1.5
	c1.5-0.1,2.8,0.4,3.7,1.6c1,1.4,0.4,3.2-1.2,3.9c-0.7,0.3-1.4,0.2-2-0.3c-0.5-0.4-0.9-0.8-1.3-1.2c-0.8-0.9-1.5-1-2.5-0.3
	c-0.9,0.6-1.5,1.6-1.9,2.6c-0.3,1-0.4,2.1-0.4,3.1c0.1,2.8,1.1,5.4,2.7,7.7c0.9,1.3,1.8,2.4,3.1,3.4c0.4,0.3,0.9,0.6,1.4,0.8
	c2,0.9,4,0.4,5.5-1.3c1-1.1,1.5-2.4,1.7-3.8C177.7,90.1,177.7,89.3,177.8,88.4z"/>
<path d="M139.3,123.7c0.5,0,0.9,0,1.3-0.1c0,0.1,0.1,0.1,0.1,0.2c0.2,2.5,0.3,4.9-0.1,7.4c-0.1,0.9-0.4,1.8-0.8,2.6
	c-0.4,0.8-0.9,1.5-1.6,2c-1.3,0.9-3.1,0.5-4-0.9c-0.7-1.2-1.3-2.4-1.8-3.6c-1.3-3-2.5-6-3.8-9c-0.3-0.7-0.6-1.3-0.9-2
	c-0.5-0.9-1.4-0.9-1.9,0c-0.3,0.5-0.4,1-0.5,1.5c-0.1,0.8-0.1,1.6-0.2,2.4c0,0.1,0,0.3,0,0.5c-0.4,0-0.9,0-1.3,0.1
	c0-0.1-0.1-0.1-0.1-0.1c-0.1-2.1-0.1-4.2,0.2-6.2c0.2-1.2,0.6-2.4,1.3-3.5c0.4-0.5,0.8-0.9,1.3-1.2c0.8-0.4,1.5-0.4,2.3,0.1
	c0.6,0.4,1.1,0.9,1.4,1.6c0.8,1.7,1.7,3.3,2.4,5c0.9,2.1,1.7,4.2,2.6,6.2c0.4,0.9,0.9,1.7,1.3,2.6c0.1,0.2,0.3,0.4,0.5,0.6
	c0.5,0.5,1.1,0.4,1.5-0.1c0.2-0.3,0.4-0.8,0.5-1.2c0.1-0.7,0.2-1.4,0.2-2c0-0.7,0-1.4,0-2.2C139.4,124.1,139.4,124,139.3,123.7z"/>
<path d="M204.8,100c-2.2-2.1-4.3-4.2-6.5-6.3c-0.5-0.5-1-0.9-1.4-1.4c-0.7-0.6-0.8-0.7-1.6-0.1c-0.4,0.2-0.7,0.5-1,0.8
	c-0.2,0.1-0.3,0.2-0.5,0c-0.2-0.2-0.1-0.4,0-0.5c0.2-0.2,0.4-0.4,0.6-0.6c1-0.7,1.8-1.6,2.6-2.4c0.1-0.2,0.3-0.3,0.4-0.4
	c0.2,0.1,0.3,0.2,0.2,0.4c-0.1,0.2-0.3,0.3-0.4,0.5c-0.5,0.6-0.6,1.1,0.1,1.7c1.2,1.1,2.4,2.2,3.5,3.4c2.1,2.1,4.2,4.2,6.4,6.4
	c0.1,0.1,0.2,0.2,0.3,0.4c-0.1,0.4-0.4,0.5-0.8,0.5c-2.3-0.1-4.6-0.2-6.9-0.4c-2.5-0.1-5-0.3-7.5-0.4c-0.8,0-1.6-0.1-2.4-0.2
	c-0.3,0-0.5,0-0.8,0c0.3,0.6,7.2,7.5,8.4,8.5c0.3-0.2,0.6-0.4,0.9-0.7c0.4-0.2,0.7-0.5,1.1-0.7c0.4-0.2,0.4-0.2,0.7,0.2
	c-0.4,0.5-1,0.9-1.5,1.4c-0.5,0.5-1,1-1.5,1.5c-0.5,0.5-1,0.9-1.5,1.4c-0.3-0.2-0.3-0.4-0.1-0.6c0.2-0.3,0.4-0.5,0.6-0.8
	c0.1-0.1,0.2-0.2,0.2-0.3c0.3-0.6,0.4-0.7-0.1-1.2c-0.9-0.9-1.7-1.8-2.6-2.7c-1.6-1.7-3.3-3.4-4.9-5c-0.3-0.3-0.7-0.6-1-1
	c-0.3-0.3-0.7-0.3-1-0.2c-0.3,0.1-0.6,0.3-0.9,0.5c-0.2,0.2-0.5,0.3-0.8,0.5c-0.1-0.1-0.3-0.2-0.4-0.3c0-0.1,0.1-0.2,0.1-0.2
	c0.4-0.4,0.8-0.8,1.2-1.2c0.2-0.2,0.4-0.4,0.6-0.7c0.3-0.5,0.7-0.6,1.3-0.6c1.6,0.1,3.1,0.2,4.7,0.3c2.6,0.2,5.2,0.3,7.9,0.5
	c1.3,0.1,2.5,0.2,3.8,0.3c0.2,0,0.4,0,0.6,0.1C204.8,100.1,204.8,100,204.8,100z"/>
<path d="M174.2,133.7c-0.6,0.7-1.4,1.2-2.2,1.7c-3.1,1.8-7.5,1.1-10-2c-2-2.5-2.4-5.3-1.1-8.2c1.2-2.7,3.3-4.7,6.2-5.5
	c2.6-0.8,5-0.2,7.1,1.6c0.6,0.6,1.2,1.2,1.7,1.9c0.9,1.2,1.3,2.6,1.3,4.1C177.1,129.8,176.1,132,174.2,133.7z M173.3,123.4
	c-0.7-0.5-1.3-1.1-2-1.5c-0.9-0.7-1.9-1.1-3.1-1.2c-2.4-0.2-4.3,0.8-5.6,2.8c-1.2,1.6-1.4,3.4-0.7,5.2c1,2.7,2.8,4.6,5.4,5.8
	c1.1,0.5,2.3,0.7,3.6,0.5c1.8-0.3,3.1-1.4,4.1-2.8c1.3-1.9,1.4-3.9,0.3-5.9C174.6,125.2,174,124.3,173.3,123.4z"/>
<path d="M168.4,63.2c-0.9,0.9-2,1.7-3.2,2.1c-2.7,1-5.2,0.6-7.6-1.1c-1.8-1.3-2.8-3.2-3.1-5.5c-0.1-1.1-0.1-2.1,0.3-3.1
	c1.1-3,3.1-5.2,6.1-6.3c2.7-1,5.2-0.5,7.4,1.4c0.8,0.6,1.4,1.4,1.9,2.2c0.7,1.1,1.1,2.3,1.1,3.6C171.3,59.2,170.3,61.4,168.4,63.2z
	 M167.5,53c-0.3-0.3-0.6-0.6-0.9-0.8c-0.9-0.8-1.9-1.4-3.1-1.8c-2.6-0.7-5.3,0.4-6.8,2.7c-0.9,1.4-1.2,2.9-0.7,4.6
	c0.9,3.1,2.9,5.2,5.9,6.3c1.8,0.7,3.7,0.6,5.4-0.5c0.8-0.5,1.4-1.2,1.9-1.9c1.3-1.9,1.4-3.8,0.4-5.8C168.9,54.8,168.3,53.9,167.5,53
	z"/>
<path d="M176.1,109.7c0.1,0.1,0.2,0.2,0.4,0.4c-0.2,0.2-0.4,0.4-0.6,0.6c-0.1,0.2-0.3,0.3-0.5,0.5c-0.4,0.5-0.4,0.8,0,1.3
	c0.4,0.5,0.9,1,1.3,1.4c1.6,1.7,3.3,3.4,4.9,5c0.4,0.4,0.9,0.8,1.3,1.2c0.9,0.7,1.9,1,3,0.5c1.7-0.7,3-1.9,3.8-3.5
	c0.6-1.3,0.4-2.6-0.5-3.8c-0.3-0.3-0.5-0.7-0.8-1c-1.9-2-3.9-4-6-5.8c-0.1-0.1-0.3-0.2-0.4-0.3c-0.3-0.3-0.7-0.3-1.1-0.1
	c-0.4,0.2-0.8,0.4-1.2,0.6c-0.2,0.1-0.4,0.2-0.5-0.1c1.2-1.2,2.4-2.3,3.6-3.5c0.3,0.1,0.4,0.3,0.2,0.5c-0.2,0.2-0.3,0.4-0.5,0.7
	c-0.5,0.7-0.4,1,0.2,1.6c0.3,0.3,0.6,0.5,0.8,0.8c1.8,1.8,3.5,3.5,5.2,5.3c0.4,0.5,0.8,1,1.2,1.5c0.8,1.3,0.9,2.6,0.3,4
	c-0.5,1.3-1.4,2.4-2.5,3.3c-0.8,0.6-1.6,1.1-2.6,1.4c-1.6,0.5-3.1,0.2-4.3-1c-1-1-1.9-1.9-2.9-2.9c-1.3-1.3-2.5-2.6-3.8-3.9
	c-0.2-0.2-0.4-0.4-0.7-0.6c-0.4-0.2-0.5-0.2-0.8,0.1c-0.2,0.2-0.5,0.5-0.7,0.7c-0.1,0.1-0.2,0.2-0.4,0.2c-0.1,0-0.2,0-0.3-0.1
	c-0.1-0.1,0-0.2,0-0.3c0-0.1,0.1-0.2,0.2-0.2c1.4-1.4,2.8-2.8,4.2-4.1C175.9,109.8,176,109.8,176.1,109.7z"/>
<path d="M143.1,87.6c-0.8,0.7-1.5,1.4-2.2,2.1c-0.7,0.7-1.3,1.3-2,2c-0.3,0.3-0.6,0.6-0.9,0.9c-0.1,0.1-0.3,0.1-0.3,0
	c-0.1-0.1-0.1-0.3-0.1-0.4c0.1-0.2,0.2-0.3,0.3-0.5c0.2-0.4,0.4-0.7,0.7-1.1c0.2-0.4,0.2-0.8-0.1-1.1c-0.3-0.3-0.5-0.7-0.8-1
	c-1.7-1.8-3.5-3.5-5.2-5.3c-0.8-0.8-1.7-1.7-2.5-2.5c-0.1-0.1-0.3-0.3-0.5-0.4c-0.8,0.9-1.8,1.6-2.4,2.5c-0.2,0.3-0.2,0.6-0.2,0.9
	c0,0.7,0.1,1.4,0.2,2.1c0,0.3,0.1,0.5-0.1,0.8c-0.1-0.1-0.2-0.1-0.3-0.2c-0.7-1.2-1.5-2.4-2.2-3.6c-0.1-0.1-0.1-0.3,0-0.4
	c0.1-0.1,0.3-0.1,0.4-0.1c0,0,0.1,0,0.1,0c0.7,0.4,1.3,0,1.8-0.5c2-1.9,3.9-3.8,5.9-5.7c0.3-0.3,0.7-0.6,1.1-0.9
	c0.2-0.2,0.3-0.4,0.2-0.7c-0.1-0.2-0.2-0.4-0.2-0.7c-0.1-0.2,0-0.4,0.3-0.5c0.1,0.1,0.3,0.2,0.4,0.3c0.9,0.9,1.7,1.8,2.6,2.7
	c0,0,0,0,0,0c0.1,0.2,0.4,0.3,0.2,0.5c-0.2,0.2-0.4,0-0.6-0.1c-0.4-0.2-0.8-0.5-1.2-0.7c-0.5-0.3-1.1-0.2-1.5,0.2
	c-0.5,0.4-1,0.8-1.4,1.3c-0.4,0.4-0.8,0.8-1.3,1.3c0.2,0.2,0.4,0.4,0.6,0.6c1.5,1.6,3.1,3.1,4.6,4.7c1.2,1.3,2.4,2.5,3.6,3.8
	c0.5,0.6,0.7,0.6,1.4,0.3c0.4-0.2,0.9-0.5,1.3-0.8C142.8,87.4,142.9,87.3,143.1,87.6z"/>
<path d="M134.7,73.7c0.3-0.3,0.6-0.6,0.9-0.8c1.2-1.1,2.3-2.2,3.5-3.3c0.2-0.1,0.3-0.3,0.5-0.4c0.1,0,0.2,0,0.3,0c0,0,0.1,0.2,0,0.3
	c-0.1,0.1-0.1,0.2-0.2,0.3c-0.2,0.2-0.5,0.4-0.7,0.7c-0.1,0.1-0.2,0.3-0.3,0.5c-0.1,0.3,0,0.4,0.3,0.5c0.3,0.1,0.5,0.1,0.8,0.2
	c2.2,0.5,4.4,1,6.5,1.5c0.2,0,0.4,0.1,0.7,0.1c0-0.2,0-0.4,0-0.5c-0.4-2.3-0.8-4.6-1.2-6.9c-0.2-1-0.6-1.2-1.5-0.6
	c-0.3,0.2-0.5,0.4-0.8,0.5c-0.2,0.1-0.2,0.1-0.5-0.1c1.2-1.2,2.5-2.4,3.7-3.6c0.3,0.2,0.3,0.4,0.1,0.5c-0.4,0.4-0.5,0.9-0.5,1.4
	c0.1,2.6,0.4,5.2,0.9,7.7c0,0.2,0.1,0.4,0.1,0.6c0,0.8,0.4,1.4,1,2c1,1,1.9,1.9,2.9,2.9c0.1,0.1,0.2,0.2,0.3,0.2
	c0.5,0.4,0.6,0.4,1.1,0c0.5-0.4,1.1-0.8,1.6-1.2c0.3,0.4,0.3,0.4,0,0.6c-1.7,1.4-3.1,3-4.7,4.5c-0.2,0.2-0.3,0.3-0.5,0.4
	c-0.3-0.2-0.3-0.4-0.1-0.6c0.2-0.3,0.5-0.6,0.7-1c0.7-1,0.7-1.1-0.1-2c-0.8-0.8-1.6-1.6-2.4-2.4c-0.4-0.4-0.8-0.6-1.3-0.7
	c-2.7-0.6-5.4-1.1-8.1-1.7c-0.1,0-0.2,0-0.3-0.1c-0.8-0.1-1.5-0.1-2.1,0.5c-0.1,0.1-0.2,0.2-0.4,0.2
	C134.9,73.9,134.8,73.8,134.7,73.7z"/>
<path d="M173.2,46.4c0.5-0.4,0.9-0.8,1.2-1.2c0.7-0.7,1.4-1.4,2.1-2.2c0.4-0.5,0.5-1,0.1-1.6c-0.2-0.3-0.5-0.7-0.7-1
	c-0.1-0.1-0.1-0.3,0-0.4c0.1-0.2,0.3-0.1,0.4,0c1.2,1.2,2.4,2.3,3.6,3.5c-0.1,0.3-0.2,0.4-0.5,0.2c-0.4-0.3-0.9-0.5-1.4-0.8
	c-0.3-0.1-0.6-0.1-0.8,0.1c-1.1,1.1-2.2,2.2-3.4,3.3c-0.1,0.1-0.1,0.2-0.2,0.4c0.4,0.4,0.8,0.8,1.2,1.3c0.9,1,1.8,1.9,2.8,2.9
	c0.1,0.1,0.2,0.2,0.3,0.3c0.4,0.3,0.5,0.3,0.9,0.1c0.3-0.2,0.7-0.5,1-0.7c0.2-0.1,0.4-0.2,0.5-0.2c0.1,0,0.3,0.1,0.4,0.1
	c-0.1,0.1-0.1,0.3-0.2,0.4c-0.6,0.5-1.2,1-1.8,1.5c-0.5,0.5-1,1.1-1.4,1.6c-0.4,0.4-0.8,0.9-1.2,1.2c-0.3-0.2-0.2-0.3-0.1-0.5
	c0.2-0.3,0.4-0.6,0.6-0.9c0.4-0.6,0.4-0.7-0.1-1.3c-0.2-0.2-0.4-0.4-0.6-0.6c-2.7-2.8-5.3-5.5-8-8.3c-0.5-0.5-0.6-0.5-1.2-0.2
	c-0.3,0.1-0.5,0.3-0.8,0.4c-0.2,0.1-0.5,0.4-0.7,0.1c-0.2-0.3,0.1-0.4,0.3-0.6c0.9-0.9,1.9-1.8,2.8-2.8c1.6-1.7,3.3-3.3,4.9-5
	c0.1-0.1,0.2-0.2,0.3-0.2c0.2-0.2,0.4-0.2,0.6,0c0.7,0.6,1.3,1.2,1.9,1.9c0.1,0.1,0.2,0.3,0.1,0.5c-0.2,0.2-0.3,0.1-0.5,0
	c-0.4-0.2-0.8-0.5-1.1-0.7c-0.5-0.3-0.9-0.3-1.4,0.1c-0.7,0.6-1.4,1.1-2,1.7c-0.6,0.5-1.1,1.1-1.7,1.7c-0.1,0.1-0.1,0.1-0.2,0.2
	c-0.6,0.7-0.6,0.9,0,1.6c1,1,2,2.1,3,3.1C172.6,45.9,172.9,46.2,173.2,46.4z"/>
<path d="M156.8,133c-0.3,0.1-0.4,0.1-0.6,0.2c0,0-0.1,0-0.1,0c-2-0.9-4-0.2-5.5,1.6c-1.4,1.6-1.6,3.5-1,5.5c0.3,1.1,0.9,2.1,1.6,2.9
	c0.9,1.2,2,2.2,3.3,3c0.4,0.2,0.8,0.4,1.2,0.6c2.6,1.1,5-0.3,6.3-1.8c0.3-0.3,0.5-0.7,0.7-1c0.8-1.3,0.9-2.7,0.5-4.1
	c-0.1-0.2-0.2-0.4,0.2-0.6c0.1,0.1,0.2,0.3,0.3,0.5c0.4,0.7,0.7,1.3,1.1,2c0.2,0.3,0.1,0.5,0,0.8c-0.5,0.8-1,1.6-1.7,2.3
	c-0.8,0.8-1.6,1.6-2.5,2.2c-3.2,2.1-6.3,2.2-9.2,0c-2.6-2-3.7-4.7-3.4-7.9c0.1-1.6,0.8-3.1,1.9-4.3c0.8-0.9,1.6-1.8,2.7-2.4
	c0.6-0.3,1.2-0.6,1.8-0.9c0.2-0.1,0.4-0.1,0.6,0C155.6,131.8,156.2,132.3,156.8,133z"/>
<path d="M211.1,80.1c-0.2,0.4-0.3,0.4-0.6,0.3c-0.5-0.2-1-0.3-1.5-0.3c-1.6-0.1-2.8,0.7-3.8,1.8c-1.4,1.6-1.6,3.5-1.1,5.5
	c0.5,1.7,1.5,3.2,2.8,4.4c0.8,0.7,1.6,1.3,2.5,1.8c3,1.6,5.7,0.1,7.1-1.7c1.2-1.5,1.6-3.2,1-5.1c0-0.1-0.1-0.2-0.1-0.2
	c0-0.1,0.1-0.2,0.1-0.2c0.1,0,0.2,0,0.2,0.1c0.1,0.1,0.2,0.2,0.2,0.3c0.4,0.7,0.7,1.3,1.1,2c0.1,0.2,0.1,0.4,0,0.7
	c-0.5,0.9-1,1.7-1.7,2.4c-0.8,0.8-1.5,1.6-2.4,2.2c-3.3,2.2-6.7,2.3-9.8-0.5c-2.5-2.2-3.3-5-2.7-8.3c0.2-1.3,0.9-2.5,1.8-3.5
	c0.8-0.9,1.6-1.8,2.7-2.4c0.6-0.3,1.2-0.6,1.8-0.9c0.2-0.1,0.4-0.1,0.6,0.1C210.1,79.1,210.6,79.6,211.1,80.1z"/>
<path d="M125.1,99.9c0.1,0.2,0.3,0.3,0.4,0.5c0.4,0.7,0.8,1.4,1.2,2c0.1,0.2,0.2,0.4,0,0.7c-0.4,0.6-0.8,1.3-1.3,1.9
	c-1.1,1.2-2.2,2.4-3.7,3.2c-1.1,0.6-2.3,1-3.5,1c-1.9,0.1-3.6-0.6-5-1.8c-2.5-2-3.4-4.7-3.1-7.8c0.2-1.5,0.8-2.8,1.8-4
	c1.1-1.3,2.4-2.5,4-3.2c0.9-0.4,0.9-0.4,1.7,0.2c0.2,0.2,0.4,0.4,0.6,0.6c0.2,0.2,0.3,0.3,0.5,0.5c-0.1,0.3-0.2,0.4-0.5,0.3
	c-0.4-0.1-0.8-0.3-1.2-0.3c-1.4-0.2-2.6,0.3-3.6,1.2c-1.9,1.7-2.3,3.8-1.6,6.2c0.3,1,0.8,2,1.5,2.8c1,1.2,2.1,2.3,3.5,3.1
	c0.5,0.3,0.9,0.5,1.4,0.6c1.8,0.6,3.4,0.2,4.9-0.9c0.6-0.5,1.1-1.1,1.6-1.7c0.9-1.4,1.1-2.8,0.6-4.4
	C124.9,100.4,124.7,100.2,125.1,99.9z"/>
<path d="M218,69.3c1.7-1.6,3.3-3.2,5-4.8c0.3,0.2,0.3,0.4,0.1,0.7c-0.3,0.3-0.6,0.7-1,1c-0.5,0.5-0.5,0.7,0,1.2
	c0.8,0.9,1.6,1.7,2.4,2.6c1.8,1.9,3.7,3.8,5.6,5.7c0.3,0.3,0.6,0.6,0.9,0.9c0.2,0.2,0.4,0.3,0.6,0.5c0.5-0.5,1-0.9,1.4-1.4
	c0.7-0.7,1.4-1.4,2-2.1c0.3-0.3,0.4-0.7,0.5-1.1c0.2-1.1,0-2.2-0.4-3.2c-0.1-0.2-0.2-0.4,0.1-0.6c0.8,1.1,1.6,2.2,2.4,3.4
	c-0.1,0.1-0.3,0.2-0.4,0.4c-2.2,2.1-4.5,4.2-6.7,6.4c-0.5,0.5-1,1.1-1.5,1.6c-0.1,0.1-0.3,0.2-0.4,0.3c-0.3-0.2-0.2-0.3-0.1-0.5
	c0.2-0.4,0.5-0.7,0.7-1.1c0.1-0.1,0.2-0.2,0.3-0.3c0.2-0.4,0.2-0.5-0.1-0.9c-0.5-0.6-1-1.2-1.6-1.8c-2.4-2.5-4.8-4.9-7.1-7.4
	c-0.5-0.5-0.6-0.5-1.2-0.1c-0.4,0.2-0.8,0.5-1.1,0.7C218.2,69.6,218.1,69.5,218,69.3z"/>
<path d="M134.6,95.5c-1.8,1.7-3.6,3.5-5.4,5.2c-0.3-0.1-0.3-0.2-0.2-0.5c0.2-0.2,0.4-0.5,0.6-0.7c0.1-0.2,0.3-0.4,0.4-0.6
	c0.5-0.7,0.5-0.9-0.1-1.5c-1.1-1.2-2.3-2.4-3.4-3.6c-1.3-1.3-2.6-2.6-3.9-3.9c-0.4-0.4-0.8-0.9-1.3-1.3c-0.4-0.3-0.5-0.4-0.9-0.1
	c-0.4,0.2-0.7,0.5-1,0.8c-0.2,0.1-0.4,0.3-0.6,0.4c-0.2,0.1-0.3,0.1-0.4-0.2c1.8-1.7,3.6-3.4,5.4-5.2c0.2,0.1,0.3,0.2,0.1,0.4
	c-0.3,0.4-0.6,0.8-0.9,1.2c-0.4,0.6-0.5,0.8,0.1,1.3c1.4,1.5,2.9,3,4.3,4.5c1,1,1.9,2,2.9,3c0.4,0.4,0.9,0.9,1.4,1.3
	c0.4,0.4,0.7,0.4,1.2,0.1c0.3-0.2,0.7-0.5,1-0.7C134.2,95.3,134.3,95.3,134.6,95.5z"/>
<path d="M221.7,87.3c-0.3-0.1-0.3-0.3-0.1-0.5c0.3-0.4,0.6-0.8,1-1.2c0.1-0.1,0.1-0.2,0.2-0.3c0.2-0.3,0.2-0.6,0-1
	c-0.5-0.6-1-1.2-1.5-1.8c-1.8-1.9-3.6-3.7-5.5-5.6c-0.6-0.6-1.2-1.2-1.8-1.8c-0.4-0.4-0.5-0.4-1-0.1c-0.5,0.3-0.9,0.7-1.3,1
	c-0.2,0.1-0.4,0.3-0.7,0c1.8-1.8,3.6-3.5,5.4-5.2c0.3,0.1,0.2,0.3,0.1,0.4c-0.3,0.3-0.5,0.7-0.8,1c-0.1,0.1-0.1,0.2-0.2,0.3
	c-0.3,0.5-0.3,0.6,0,1c0.6,0.7,1.3,1.4,1.9,2.1c1.9,2,3.9,4,5.9,6c0.3,0.3,0.7,0.6,1,0.9c0.4,0.3,0.7,0.3,1.1,0.1
	c0.4-0.2,0.7-0.5,1-0.8c0.2-0.2,0.5-0.3,0.7,0C225.3,83.8,223.5,85.5,221.7,87.3z"/>
<path d="M68,196.2c0.1,0.2,0.1,0.4,0.2,0.5c0.1,0.7,0.3,1.3,0.3,2c0,1.2-0.6,2.1-1.6,2.6c-1,0.5-1.9,0.4-2.8-0.3
	c-1.5-1.2-1.3-3.7,0.5-4.6c0.1-0.1,0.3-0.1,0.5-0.2c0-0.2-0.1-0.4-0.1-0.7c-0.9,0.5-1.4,0.5-1.9,0c-0.5-0.5-0.6-1-0.3-1.9
	c-1.1-0.6-2.2-1.1-3.5-0.9c-1.4,0.2-2.8,2-1.7,3.9c0.2,0.3,0.5,0.6,0.9,0.7c0.5,0.1,1,0.2,1.4,0.3c0.2,0,0.5,0,0.7,0
	c-0.2,0.8-0.6,1.3-1.2,1.7c-1.3,0.9-2.7,1.4-4.4,1.3c-2.4-0.2-4.3-2.1-4.6-4.5c-0.3-2.8,1.3-5.2,3.4-6.2c1.6-0.7,3.2-1,5-0.8
	c0.1,0,0.2,0,0.3,0c0,0,0,0,0.1-0.1c-3.8-2.6-6.7-6-8.7-10.1c-0.9-1.8-1.6-3.6-2.1-5.5c1.3,0,5.9,2.1,8.7,4.1
	c2.7,1.9,4.8,4.3,6.7,6.9c0-0.2,0-0.4,0-0.6c-0.1-2,0.3-3.8,1.5-5.4c2.1-2.9,6-3.1,8-1.6c1.3,1,2.2,2.3,2.2,4c0,1.8-0.6,3.4-1.9,4.7
	c-0.3,0.3-0.8,0.5-1.3,0.7c0-0.3,0.1-0.6,0.1-0.8c0-0.3,0-0.6-0.1-0.8c-0.3-1.7-2-2.5-3.5-1.6c-0.8,0.5-1.2,1.2-1.3,2.1
	c-0.1,1.1,0.3,2.1,0.8,3.1c1-0.4,1.5-0.3,2,0.3c0.4,0.6,0.4,1.1-0.2,1.9c0.2,0.1,0.4,0.1,0.6,0.2c0.1-0.1,0.1-0.2,0.2-0.2
	c0.5-1.3,2-1.9,3.2-1.6c1.2,0.3,2,1.4,2,2.6c0,1.3-1.1,2.5-2.4,2.7c-0.7,0.1-1.4,0-2.1-0.2c-0.2-0.1-0.4-0.1-0.6-0.1
	c0.9,0.8,1.7,1.7,2.2,2.8c0.6,1.1,1,2.2,1.1,3.5C71.8,199.5,69.6,198.3,68,196.2z M66,190.4c-3.2-7.5-8.3-13-16.2-15.7
	c0.1,0.2,0.1,0.4,0.1,0.5c0.2,0.6,0.4,1.2,0.7,1.8c1.1,2.6,2.5,5,4.4,7.1c2.7,3.1,6.1,5.3,9.8,7.1c0.1,0,0.2,0.1,0.3,0.1
	C65.4,190.9,65.7,190.7,66,190.4z M63.6,192.7c-0.6-0.7-1.4-1.3-2.5-1.9c-2.2-1.3-4.5-1.2-6.8-0.2c-2,0.9-3.1,3-3,5
	c0.1,2.5,2.2,4.2,4.6,4c1-0.1,1.9-0.4,2.7-1c0.1-0.1,0.1-0.1,0.2-0.3c-0.2-0.1-0.4-0.1-0.6-0.2c-0.6-0.2-1.1-0.5-1.5-1.1
	c-1.5-2.4,0.3-5.1,2.3-5.3c1-0.1,1.9,0,2.8,0.4c0.4,0.2,0.9,0.4,1.3,0.6C63.3,192.9,63.4,193,63.6,192.7z M73.3,184.3
	c0.1-0.1,0.2-0.2,0.2-0.2c0.6-1,1.1-2,1.1-3.2c0-1.6-0.7-2.8-2.1-3.7c-2.2-1.3-5.4-0.4-6.7,1.8c-2.1,3.5-1.2,7.1,1.5,9.8
	c0.2,0,0.3-0.1,0.2-0.4c-0.1-0.2-0.2-0.4-0.2-0.5c-0.4-0.9-0.7-1.7-0.7-2.7c0-1.5,0.6-2.6,1.9-3.4c1.5-0.8,4.1-0.4,4.6,2
	C73.2,184.1,73.3,184.2,73.3,184.3z M73.3,198.7c-0.1-0.3-0.1-0.4-0.2-0.6c-0.5-1.5-1.3-2.7-2.5-3.7c-0.9-0.7-1.7-1.4-2.6-1.9
	c-0.3,0.2-0.5,0.5-0.8,0.7c0.9,1.5,1.8,2.9,3.2,4C71.2,197.9,72.1,198.4,73.3,198.7z M65.7,194.7c-0.1,0-0.1,0-0.2,0
	c0,0.1,0,0.2,0,0.3c0.1,0.2,0.2,0.4,0.3,0.6c0.1,0.4,0,0.7-0.1,1.1c-0.1,0.3-0.4,0.2-0.6,0.3c-0.1,0-0.1,0.1-0.2,0.1
	c-0.8,0.4-1.2,1.5-0.8,2.3c0.3,0.8,1.2,1.3,2,1.1c0.9-0.2,1.6-1,1.6-2C67.6,197,66.8,195.7,65.7,194.7z M69.4,191.1
	c0.3,0.3,0.5,0.6,0.8,0.8c0.9,0.8,1.9,1.3,3.1,1.3c1.1,0,2-0.9,2.1-2c0-0.8-0.5-1.4-1.2-1.7c-0.8-0.2-2,0-2.3,1.1
	c-0.1,0.5-0.4,0.6-0.8,0.6c-0.4,0-0.8-0.1-1.2-0.3C69.7,190.9,69.5,190.8,69.4,191.1z M66.2,191.4c-0.8,0.8-1.7,1.6-2.5,2.4
	c-0.1,0.1-0.3,0.2-0.4,0.4c-0.2,0.2-0.1,0.4,0,0.6c0.2,0.2,0.4,0.3,0.7,0.1c0.1-0.1,0.2-0.2,0.4-0.3c1.7-1.6,3.4-3.3,5.1-4.9
	c0.1-0.1,0.2-0.2,0.3-0.3c0.2-0.2,0.1-0.5-0.1-0.7c-0.2-0.2-0.4-0.2-0.6,0c-0.1,0.1-0.3,0.2-0.4,0.3C67.8,189.8,67,190.6,66.2,191.4
	z"/>
</svg>
